<?xml version="1.0" encoding="UTF-8"?>
<svg width="260px" height="58px" viewBox="0 0 260 58" version="1.1" xmlns="http://www.w3.org/2000/svg" xmlns:xlink="http://www.w3.org/1999/xlink">
    <!-- Generator: Sketch 42 (36781) - http://www.bohemiancoding.com/sketch -->
    <title>Wave / Blue</title>
    <desc>Created with Sketch.</desc>
    <defs></defs>
    <g id="Symbols" stroke="none" stroke-width="1" fill="none" fill-rule="evenodd">
        <g id="Wave-/-Blue" fill-rule="nonzero" fill="#FFFFFF">
            <path d="M258.865992,26 C246.885746,29.2583653 234.513779,31.3277238 222.082368,32.3601223 C215.86209,32.8633975 209.617425,33.0808246 203.386477,32.9302982 C197.81551,32.790415 192.271979,32.3357948 186.775698,31.4524022 C186.29405,32.2187186 185.702658,32.8968479 185,33.4791875 C191.008414,34.7183699 197.149433,35.4162652 203.272162,35.7553298 C209.614376,36.0989558 215.968784,36.067026 222.304902,35.7446865 C234.978661,35.0726392 247.599073,33.3545091 260,30.378951 L258.865992,26 Z" id="Shape"></path>
            <path d="M231.599294,41.7324156 C222.840353,42.9317583 213.997294,43.5435969 205.187882,43.2915611 C200.781647,43.1525069 196.384588,42.7961804 192.056353,42.0505021 C188.472941,41.4021618 184.880353,40.5452401 181.601294,39 C181.180706,39.7456783 180.620941,40.4479021 180,41.091028 C183.713412,43.114267 187.686824,44.1762936 191.617412,45.0245244 C196.074118,45.9440205 200.566,46.4498303 205.062471,46.7348914 C214.053882,47.2841556 223.051412,46.9486873 232,46.017024 L231.599294,41.7324156 Z" id="Shape"></path>
            <path d="M183.272508,48.0010144 C181.501982,47.6114831 179.74547,47.1440454 178.021659,46.5873402 C176.64043,46.13451 175.295017,45.6086427 174.010334,45 C173.421716,45.6589572 172.745895,46.2286468 172,46.7123149 C173.678652,47.7250964 175.428935,48.4733212 177.185447,49.1582471 C178.965317,49.839927 180.770102,50.4274701 182.598245,50.9354839 C186.252973,51.9466423 189.990232,52.657537 193.788222,53 L194,49.3854737 C190.410674,49.257253 186.813562,48.776831 183.272508,48.0010144 Z" id="Shape"></path>
            <path d="M186.844472,23.3718682 C186.474264,25.8175141 185.205845,28.1704989 183.341148,29.794347 C181.960453,31.0080557 180.355205,31.8480819 178.695336,32.3903773 C178.435887,35.3403428 176.999054,38.1778996 174.832424,40.117707 C172.280414,42.4706917 169.016815,43.6828815 165.77294,44.2418862 C165.586318,44.7462058 165.361766,45.2520443 165.100799,45.718388 C164.002312,47.7159186 162.192236,49.265334 160.215262,50.1995404 C158.388496,51.0957709 156.375109,51.5423671 154.454274,51.7094609 C151.841573,57.2007714 144.438923,59.9441481 139.14373,56.4336589 C137.612827,55.388563 136.439995,53.858895 135.881648,52.064915 C135.321783,50.3089109 135.470473,48.1078296 136.813237,46.5584142 C138.11807,45.1016599 139.961526,44.3558138 141.885396,44.448475 C142.83671,44.5031602 143.806231,44.8601334 144.572441,45.457114 C145.355341,46.0540946 145.895481,46.8758924 146.247482,47.6976902 L144.888028,48.3144183 C144.290233,46.988301 143.153815,46.111818 141.792844,46.0935896 C140.451597,46.0358662 138.996557,46.7087986 138.174208,47.7174377 C137.356412,48.6881009 137.242618,50.1630836 137.708413,51.4694534 C138.154484,52.7955707 139.086074,53.9728226 140.283182,54.7186687 C142.666778,56.2696031 145.968309,56.0994713 148.449008,54.644236 C150.985846,53.2254576 152.832336,50.5565136 152.756474,47.8313653 C152.738267,46.4672721 152.290679,45.1244454 151.524469,43.927446 C151.114812,43.3107179 150.705155,42.7714606 150.181705,42.2291652 C149.71591,41.7430741 149.17577,41.3511632 148.559767,40.9972281 C146.098792,39.6149065 142.983883,39.2609714 140.057113,39.6149065 C134.089778,40.3227766 128.77486,43.925927 125.382295,48.911399 L121.784901,46.1862507 C125.999815,40.6220265 132.637772,36.5525325 139.74456,36.1226456 C143.269125,35.9160569 146.940864,36.4583523 150.113429,38.4361355 C150.894811,38.9419741 151.641297,39.5404738 152.29523,40.2665724 C152.874819,40.9197573 153.451373,41.7035792 153.900478,42.4691727 C154.830551,44.0383356 155.448071,45.9234577 155.390415,47.8283272 C155.372208,48.4617647 155.296346,49.0967212 155.147656,49.6952209 C156.620903,49.4339469 158.001598,49.0040601 159.286707,48.3326467 C160.929886,47.4926205 162.290857,46.2029601 163.091963,44.6170878 C163.914311,43.0479249 164.193485,41.1992597 163.949208,39.4280652 C163.72769,37.6158568 162.923549,36.0664414 161.749199,34.6279155 C159.4005,31.808587 155.874417,30.0343545 152.201161,29.3264843 C148.509698,28.6170951 144.631614,28.9148259 140.900702,29.8308038 C137.151584,30.7270343 133.535983,32.2399929 130.067555,34.0491633 C126.635542,35.8598526 123.277873,38.1004289 119.774549,40.2118871 C112.854383,44.5046792 105.35918,48.3508751 97.5453561,51.057795 L95.8521079,46.0540946 C103.403449,43.6828815 110.505684,40.3045482 117.463781,36.2730301 C120.948898,34.3119563 124.397602,32.1275843 128.202858,30.3351234 C131.967149,28.524434 135.943855,27.0691987 140.11932,26.2276535 C144.259888,25.4043367 148.643216,25.202305 152.876336,26.207906 C157.088215,27.1800882 161.152921,29.402436 163.87638,32.9478631 C164.548521,33.8273842 165.141765,34.7782999 165.592387,35.8416242 C166.058182,36.8867201 166.300942,38.0457436 166.431425,39.1470438 C166.525494,40.1556828 166.507287,41.1825503 166.338873,42.1911894 C168.984952,41.518257 171.483859,40.3622716 173.347039,38.5333537 C175.512151,36.4780998 176.612155,33.4916775 176.275327,30.5781689 C175.959739,27.6479509 174.374215,24.9592595 172.136275,22.923753 C169.899853,20.8533086 167.102048,19.3585785 164.175278,18.33323 C158.264082,16.2779761 151.75509,16.0182211 145.52679,16.9691369 C142.395191,17.455228 139.318213,18.2405689 136.33227,19.3038932 C133.387293,20.3292417 130.40135,21.7313107 127.494304,23.1105942 C121.655935,25.9314417 115.932878,29.1229337 109.983751,32.0166948 C104.054348,34.9286844 97.8654953,37.5414241 91.4505731,39.5024979 C78.7314877,43.442874 65.3417789,44.8221575 52.1963469,44.7872197 L52.8123494,38.7763993 C65.4176412,39.1303344 78.0032089,38.1414428 90.0683606,34.779819 C96.2420405,33.0815381 102.245789,30.7650102 108.138778,28.0778378 C114.031767,25.3891463 119.848894,22.3647482 125.889056,19.6578283 C128.928102,18.3150016 131.930735,17.0055937 135.177645,15.924041 C138.383589,14.8789451 141.703326,14.0951232 145.059477,13.6470079 C151.75509,12.7872343 158.72836,13.1988927 165.164523,15.5883343 C168.36895,16.800524 171.447445,18.5003239 173.982766,20.9459698 C176.536293,23.3536398 178.419197,26.6788068 178.698371,30.3168949 C179.912169,29.8125754 181.010656,29.1229337 181.94528,28.2449316 C183.418528,26.8823574 184.312186,25.0883774 184.609567,23.0361615 C184.891775,20.9641982 184.424463,19.0395812 183.585425,17.1742065 C182.72818,15.3073129 181.776866,13.9265103 180.24748,12.2646863 C178.886509,10.7897036 177.542228,9.79929298 176.386086,9.05344693 C174.670079,7.93391834 172.863037,6.90553184 170.36413,5.99107294 C166.319149,4.47963339 161.80382,3.50745117 156.209729,3.50745117 C147.464315,3.50745117 139.74456,5.59764294 130.923283,9.22054075 C122.812078,12.5441887 115.074116,17.3792762 106.850635,21.1510394 C98.6468777,24.9790069 90.0501537,28.1522705 81.1909458,30.3168949 C72.3150482,32.4830385 63.3101845,33.7529515 54.244631,34.4258839 C36.1575241,35.7140253 17.7745539,34.6127251 0,30.3746183 L1.41710912,24.5308917 C18.461867,28.9360924 36.2713176,30.3563899 53.9275263,29.4404119 C62.7503202,28.9543208 71.5685624,27.8909965 80.168321,25.9496701 C88.7620106,24.0250531 97.1190096,21.1145826 105.22718,17.5296607 C113.377833,13.9827146 122.311386,8.67976439 130.851972,5.33788801 C140.175458,1.67853337 147.185141,0 156.417592,0 C161.696096,0 166.991289,1.23193716 171.333652,2.93021798 C174.00249,3.95708545 175.86567,5.02040975 178.067196,6.56982517 C179.39327,7.50403152 180.845276,8.77242551 182.133419,10.1167712 C183.773563,11.8530279 185.078396,13.8885344 185.955365,16.1291107 C186.865714,18.4061437 187.237439,20.8882464 186.844472,23.3718682 Z" id="Shape"></path>
        </g>
    </g>
</svg>
