<svg style="position:absolute;width:0;height:0" xmlns="http://www.w3.org/2000/svg" overflow="hidden"><defs><symbol id="icon-search" viewBox="0 0 26 28"><title>search</title><path d="M18 13c0-3.86-3.14-7-7-7s-7 3.14-7 7 3.14 7 7 7 7-3.14 7-7zm8 13c0 1.094-.906 2-2 2-.53 0-1.047-.22-1.406-.594l-5.36-5.344C15.408 23.328 13.22 24 11.002 24 4.924 24 0 19.076 0 13S4.924 2 11 2s11 4.92 11 11c0 2.218-.67 4.405-1.936 6.233l5.36 5.36c.358.358.577.874.577 1.405z"/></symbol><symbol id="icon-check" viewBox="0 0 28 28"><title>check</title><path d="M26.11 8.844c0 .39-.157.78-.44 1.062L12.234 23.344c-.28.28-.672.438-1.062.438s-.78-.156-1.06-.438l-7.782-7.78c-.28-.282-.438-.673-.438-1.063s.156-.78.438-1.06l2.125-2.126c.28-.28.672-.438 1.062-.438s.78.156 1.062.438l4.594 4.61L21.42 5.656c.282-.28.673-.438 1.063-.438s.78.155 1.062.437l2.125 2.125c.28.28.438.672.438 1.062z"/></symbol><symbol id="icon-home" viewBox="0 0 26 28"><title>home</title><path d="M22 15.5V23c0 .547-.453 1-1 1h-6v-6h-4v6H5c-.547 0-1-.453-1-1v-7.5c0-.03.016-.063.016-.094L13 8l8.984 7.406c.016.03.016.063.016.094zm3.484-1.078l-.97 1.156c-.077.094-.202.156-.327.172h-.047c-.125 0-.234-.03-.328-.11L13 6.626 2.185 15.64c-.11.08-.234.126-.375.11-.124-.016-.25-.078-.327-.172l-.97-1.156c-.17-.203-.14-.53.064-.703L11.81 4.36c.657-.547 1.72-.547 2.376 0L18 7.547V4.5c0-.28.218-.5.5-.5h3c.28 0 .5.22.5.5v6.375l3.42 2.844c.204.17.235.5.064.702z"/></symbol><symbol id="icon-chevron-right" viewBox="0 0 19 28"><title>chevron-right</title><path d="M17.297 13.703L5.703 25.297c-.39.39-1.016.39-1.406 0l-2.594-2.594c-.39-.39-.39-1.016 0-1.406L10 13 1.703 4.703c-.39-.39-.39-1.016 0-1.406L4.297.703c.39-.39 1.016-.39 1.406 0l11.594 11.594c.39.39.39 1.016 0 1.406z"/></symbol><symbol id="icon-exclamation-circle" viewBox="0 0 24 28"><title>exclamation-circle</title><path d="M12 2c6.625 0 12 5.375 12 12s-5.375 12-12 12S0 20.625 0 14 5.375 2 12 2zm2 19.484v-2.97c0-.28-.22-.515-.484-.515h-3c-.28 0-.516.233-.516.515v2.97c0 .28.234.515.516.515h3c.266 0 .484-.234.484-.516zm-.03-5.375l.28-9.704c0-.11-.047-.22-.156-.28C14 6.045 13.86 6 13.72 6H10.28c-.14 0-.28.047-.375.125-.11.063-.156.172-.156.28l.267 9.704c0 .218.234.39.53.39h2.892c.28 0 .515-.172.53-.39z"/></symbol><symbol id="icon-bars" viewBox="0 0 24 28"><title>bars</title><path d="M24 21v2c0 .547-.453 1-1 1H1c-.547 0-1-.453-1-1v-2c0-.547.453-1 1-1h22c.547 0 1 .453 1 1zm0-8v2c0 .547-.453 1-1 1H1c-.547 0-1-.453-1-1v-2c0-.547.453-1 1-1h22c.547 0 1 .453 1 1zm0-8v2c0 .547-.453 1-1 1H1c-.547 0-1-.453-1-1V5c0-.547.453-1 1-1h22c.547 0 1 .453 1 1z"/></symbol><symbol id="icon-caret-down" viewBox="0 0 16 28"><title>caret-down</title><path d="M16 11c0 .266-.11.516-.297.703l-7 7C8.516 18.89 8.265 19 8 19s-.516-.11-.703-.297l-7-7C.11 11.516 0 11.265 0 11c0-.547.453-1 1-1h14c.547 0 1 .453 1 1z"/></symbol><symbol id="icon-caret-up" viewBox="0 0 16 28"><title>caret-up</title><path d="M16 19c0 .547-.453 1-1 1H1c-.547 0-1-.453-1-1 0-.266.11-.516.297-.703l7-7C7.484 11.11 7.735 11 8 11s.516.11.703.297l7 7c.187.187.297.438.297.703z"/></symbol><symbol id="icon-caret-left" viewBox="0 0 11 28"><title>caret-left</title><path d="M10 7v14c0 .547-.453 1-1 1-.266 0-.516-.11-.703-.297l-7-7C1.11 14.516 1 14.265 1 14s.11-.516.297-.703l7-7C8.484 6.11 8.735 6 9 6c.547 0 1 .453 1 1z"/></symbol><symbol id="icon-caret-right" viewBox="0 0 9 28"><title>caret-right</title><path d="M9 14c0 .266-.11.516-.297.703l-7 7C1.516 21.89 1.265 22 1 22c-.547 0-1-.453-1-1V7c0-.547.453-1 1-1 .266 0 .516.11.703.297l7 7c.187.187.297.438.297.703z"/></symbol><symbol id="icon-globe" viewBox="0 0 24 28"><title>globe</title><path d="M12 2c6.625 0 12 5.375 12 12s-5.375 12-12 12S0 20.625 0 14 5.375 2 12 2zm4.28 8.14c-.124.095-.202.267-.358.298.078-.016.156-.297.203-.36.094-.108.22-.17.344-.233.265-.11.53-.14.81-.187.267-.063.595-.063.798.172-.047-.047.328-.375.375-.39.14-.08.375-.048.47-.188.03-.047.03-.344.03-.344-.266.03-.36-.22-.375-.438 0 .016-.03.063-.094.125.016-.234-.28-.063-.39-.094-.36-.093-.314-.343-.423-.608-.062-.14-.233-.187-.296-.328-.063-.094-.094-.297-.234-.313-.094-.015-.266.33-.297.314-.14-.078-.203.03-.313.094-.094.063-.172.03-.266.078.28-.094-.125-.25-.266-.22.22-.062.11-.296-.016-.405h.078c-.03-.14-.47-.265-.61-.358s-.89-.25-1.046-.156c-.187.11.047.422.047.578.017.187-.186.234-.186.39 0 .267.5.22.375.58-.08.218-.376.265-.5.437-.126.157.015.44.14.548.125.094-.22.25-.266.28-.266.126-.47-.265-.53-.5-.048-.17-.064-.374-.25-.468-.095-.03-.392-.078-.454.016-.094-.234-.422-.328-.64-.406-.314-.11-.58-.11-.907-.063.11-.016-.03-.5-.297-.422.078-.156.047-.328.078-.484.03-.124.094-.25.187-.358.032-.063.376-.422.267-.438.266.03.562.047.78-.172.142-.14.204-.375.345-.53.203-.235.453.062.672.077.313.015.297-.33.125-.485.202.016.03-.36-.08-.406-.14-.048-.67.093-.39.202-.063-.03-.438.75-.656.36-.063-.08-.094-.407-.234-.423-.125 0-.203.14-.25.233.078-.203-.438-.344-.547-.36.234-.155.047-.327-.125-.42-.125-.08-.516-.142-.625-.017-.297.36.313.406.47.5.046.03.233.14.124.22-.094.046-.375.124-.406.186-.093.14.11.297-.03.438-.14-.14-.14-.375-.25-.53.14.17-.562.077-.547.077-.234 0-.61.156-.78-.078-.032-.064-.032-.423.062-.345-.14-.11-.234-.22-.328-.28-.516.17-1 .39-1.47.64.064.016.11.016.188-.016.125-.048.234-.126.36-.188.155-.063.483-.25.655-.11.016-.03.063-.062.078-.077.11.125.22.25.313.39-.124-.062-.327-.03-.468-.015-.11.03-.297.063-.344.187.047.078.11.203.078.28-.203-.14-.36-.374-.64-.405-.126 0-.25 0-.345.016-1.5.828-2.765 2.03-3.67 3.47.062.062.124.108.186.124.156.047 0 .5.297.266.094.078.11.187.047.297.016-.016.64.39.688.422.11.094.28.203.328.328.03.11-.063.234-.156.28-.016-.03-.25-.265-.28-.202-.048.078 0 .5.17.484-.25.016-.14.984-.202 1.172 0 .015.03.015.03.015-.046.187.11.922.423.844-.202.046.36.765.44.81.202.142.437.235.577.44.156.218.156.546.375.718-.063.187.328.406.313.672-.03.016-.047.016-.078.03.078.22.375.22.484.423.064.125 0 .422.204.36.03-.345-.203-.69-.375-.97-.095-.156-.188-.297-.267-.453-.078-.14-.094-.313-.156-.47.063.017.406.142.375.188-.125.313.5.86.672 1.062.047.047.406.516.22.516.202 0 .483.313.577.47.142.233.11.53.204.78.094.313.53.453.78.594.22.11.407.266.626.344.328.125.406.016.688-.03.406-.064.453.39.78.56.204.11.642.267.86.173-.094.03.328.672.36.72.14.186.405.28.56.468.048-.03.095-.078.11-.14-.063.17.234.5.39.468.173-.03.22-.375.22-.5-.313.156-.594.03-.766-.28-.03-.08-.28-.517-.063-.517.296 0 .093-.234.062-.453s-.25-.36-.36-.547c-.093.187-.405.14-.5-.016 0 .047-.046.125-.046.187-.078 0-.156.016-.234-.016.03-.186.047-.42.094-.624.078-.28.594-.828-.078-.797 0 234 .016-.33.11-.407.312-.078.186-.047.358-.266.453-.14.063-.61.03-.75-.046-.297-.17-.5-.718-.5-1.03-.016-.422.203-.797 0-1.187.094-.077.187-.233.297-.313.094-.063.203.047.25-.14-.047-.03-.11-.094-.125-.094.233.11.67-.156.874 0 .125.094.266.125.344-.032.016-.048-.11-.235-.047-.36.048.266.22.313.454.14.094.094.344.063.516.157.172.11.203.282.406.047.125.187.14.187.187.374.047.17.14.608.297.688.328.203.25-.344.22-.53-.017-.016-.017-.53-.032-.532-.5-.11-.313-.5-.03-.767.046-.032.405-.157.56-.28.142-.125.314-.344.235-.547.078 0 .14-.063.172-.14-.047-.016-.234-.172-.266-.156.108-.063.093-.156.03-.25.156-.094.078-.266.234-.328.172.234.516-.03.344-.22.156-.22.516-.11.61-.313.233.063.062-.234.186-.406.11-.14.297-.14.438-.22 0 .015.39-.22.266-.234.266.03.797-.25.39-.484.064-.14-.14-.203-.28-.235.11-.032.25.03.344-.03.203-.14.063-.203-.11-.25-.218-.063-.5.078-.67.187zm-2.546 13.704c2.14-.375 4.047-1.437 5.484-2.953-.094-.093-.266-.062-.39-.124-.126-.047-.22-.094-.376-.125.03-.312-.313-.42-.53-.577-.204-.156-.33-.328-.626-.266-.03.016-.344.125-.28.187-.204-.172-.298-.266-.563-.344-.25-.078-.422-.39-.672-.11-.124.126-.062.314-.124.44-.203-.173.187-.376.03-.563-.186-.22-.515.14-.67.234-.095.08-.204.11-.267.204-.08.11-.11.25-.173.36-.047-.126-.313-.095-.328-.188.062.375.062.766.14 1.14.047.22 0 .58-.187.75s-.422.36-.453.626c-.03.187.016.36.187.406.016.234-.25.406-.234.656 0 .016.016.172.03.25z"/></symbol></defs></svg>
