<svg style="position:absolute;width:0;height:0" xmlns="http://www.w3.org/2000/svg" overflow="hidden"><defs><symbol id="icon-search" viewBox="0 0 26 28"><path d="M18 13c0-3.86-3.14-7-7-7s-7 3.14-7 7 3.14 7 7 7 7-3.14 7-7zm8 13c0 1.094-.906 2-2 2-.53 0-1.047-.22-1.406-.594l-5.36-5.344C15.408 23.328 13.22 24 11.002 24 4.924 24 0 19.076 0 13S4.924 2 11 2s11 4.92 11 11c0 2.218-.67 4.405-1.936 6.233l5.36 5.36c.358.358.577.874.577 1.405z"/></symbol><symbol id="icon-home" viewBox="0 0 26 28"><path d="M22 15.5V23c0 .547-.453 1-1 1h-6v-6h-4v6H5c-.547 0-1-.453-1-1v-7.5c0-.03.016-.063.016-.094L13 8l8.984 7.406c.016.03.016.063.016.094zm3.484-1.078l-.97 1.156c-.077.094-.202.156-.327.172h-.047c-.125 0-.234-.03-.328-.11L13 6.626 2.185 15.64c-.11.08-.234.126-.375.11-.124-.016-.25-.078-.327-.172l-.97-1.156c-.17-.203-.14-.53.064-.703L11.81 4.36c.657-.547 1.72-.547 2.376 0L18 7.547V4.5c0-.28.218-.5.5-.5h3c.28 0 .5.22.5.5v6.375l3.42 2.844c.204.17.235.5.064.7z"/></symbol><symbol id="icon-bars" viewBox="0 0 24 28"><path d="M24 21v2c0 .547-.453 1-1 1H1c-.547 0-1-.453-1-1v-2c0-.547.453-1 1-1h22c.547 0 1 .453 1 1zm0-8v2c0 .547-.453 1-1 1H1c-.547 0-1-.453-1-1v-2c0-.547.453-1 1-1h22c.547 0 1 .453 1 1zm0-8v2c0 .547-.453 1-1 1H1c-.547 0-1-.453-1-1V5c0-.547.453-1 1-1h22c.547 0 1 .453 1 1z"/></symbol><symbol id="icon-caret-down" viewBox="0 0 16 28"><path d="M16 11c0 .266-.11.516-.297.703l-7 7C8.516 18.89 8.265 19 8 19s-.516-.11-.703-.297l-7-7C.11 11.516 0 11.265 0 11c0-.547.453-1 1-1h14c.547 0 1 .453 1 1z"/></symbol><symbol id="icon-caret-up" viewBox="0 0 16 28"><path d="M16 19c0 .547-.453 1-1 1H1c-.547 0-1-.453-1-1 0-.266.11-.516.297-.703l7-7C7.484 11.11 7.735 11 8 11s.516.11.703.297l7 7c.187.187.297.438.297.703z"/></symbol><symbol id="icon-caret-left" viewBox="0 0 11 28"><path d="M10 7v14c0 .547-.453 1-1 1-.266 0-.516-.11-.703-.297l-7-7C1.11 14.516 1 14.265 1 14s.11-.516.297-.703l7-7C8.484 6.11 8.735 6 9 6c.547 0 1 .453 1 1z"/></symbol><symbol id="icon-caret-right" viewBox="0 0 9 28"><path d="M9 14c0 .266-.11.516-.297.703l-7 7C1.516 21.89 1.265 22 1 22c-.547 0-1-.453-1-1V7c0-.547.453-1 1-1 .266 0 .516.11.703.297l7 7c.187.187.297.438.297.703z"/></symbol><symbol id="icon-globe" viewBox="0 0 24 28"><path d="M12 2c6.625 0 12 5.375 12 12s-5.375 12-12 12S0 20.625 0 14 5.375 2 12 2zm4.28 8.14c-.124.095-.202.267-.358.298.078-.016.156-.297.203-.36.094-.108.22-.17.344-.233.264-.11.53-.14.81-.187.266-.063.594-.063.797.172-.047-.047.328-.375.375-.39.14-.08.375-.048.47-.188.03-.047.03-.344.03-.344-.266.03-.36-.22-.375-.438 0 .016-.03.063-.094.125.016-.234-.28-.063-.39-.094-.36-.092-.314-.342-.423-.607-.062-.14-.233-.187-.296-.328-.063-.094-.094-.297-.234-.313-.094-.015-.266.33-.297.314-.14-.078-.203.03-.313.094-.094.063-.172.03-.266.078.28-.094-.125-.25-.266-.22.22-.062.11-.296-.016-.405h.078c-.03-.14-.47-.265-.61-.358s-.89-.25-1.046-.156c-.187.11.047.42.047.577.018.187-.185.234-.185.39 0 .267.5.22.375.58-.08.218-.376.265-.5.437-.126.157.015.44.14.548.125.094-.22.25-.266.28-.266.126-.47-.265-.53-.5-.048-.17-.064-.374-.25-.468-.095-.03-.392-.078-.454.016-.094-.234-.422-.328-.64-.406-.314-.11-.58-.11-.907-.063.11-.015-.03-.5-.297-.42.078-.157.047-.33.078-.485.03-.124.094-.25.187-.358.033-.063.377-.422.268-.438.266.03.562.046.78-.173.142-.14.204-.375.345-.53.203-.235.453.062.672.077.313.015.297-.33.125-.485.202.015.03-.36-.08-.407-.14-.048-.67.093-.39.202-.063-.03-.438.75-.656.36-.063-.08-.094-.407-.234-.423-.125 0-.203.14-.25.233.078-.203-.438-.344-.547-.36.234-.155.047-.327-.125-.42-.125-.08-.516-.142-.625-.017-.297.36.313.406.47.5.046.03.233.14.124.22-.094.046-.375.124-.406.186-.092.14.11.297-.03.438-.14-.14-.14-.375-.25-.53.14.17-.56.077-.546.077-.234 0-.61.155-.78-.08-.032-.063-.032-.422.062-.344-.14-.11-.234-.22-.328-.28-.516.17-1 .39-1.47.64.064.016.11.016.188-.016.125-.048.234-.126.36-.188.155-.063.483-.25.655-.11.017-.03.064-.062.08-.077.11.125.22.25.312.39-.124-.062-.327-.03-.468-.015-.11.03-.297.063-.344.187.047.078.11.203.078.28-.203-.14-.36-.374-.64-.405-.126 0-.25 0-.345.016-1.5.828-2.765 2.03-3.67 3.47.062.062.124.108.186.124.155.047 0 .5.296.266.094.078.11.187.047.297.016-.016.64.39.688.422.11.094.28.203.33.328.03.11-.064.234-.157.28-.016-.03-.25-.265-.28-.202-.048.078 0 .5.17.484-.25.016-.14.984-.202 1.172 0 .014.03.014.03.014-.045.187.11.922.424.844-.202.046.36.765.44.81.202.142.437.235.577.44.157.218.157.546.376.718-.063.187.328.406.313.672-.03.016-.048.016-.08.03.08.22.376.22.485.423.064.126 0 .423.204.36.03-.344-.204-.69-.376-.97-.095-.155-.188-.296-.267-.452-.078-.14-.094-.313-.156-.47.064.017.407.142.376.188-.125.313.5.86.672 1.062.047.047.406.516.22.516.202 0 .483.313.577.47.142.233.11.53.204.78.093.313.53.453.78.594.22.11.406.266.625.344.328.125.406.016.688-.03.406-.064.453.39.78.56.204.11.642.267.86.173-.094.03.328.672.36.72.14.186.405.28.56.468.048-.03.095-.078.11-.14-.063.17.234.5.39.468.173-.03.22-.374.22-.5-.313.157-.594.03-.766-.28-.03-.08-.28-.516-.063-.516.296 0 .093-.234.062-.453s-.25-.36-.36-.546c-.093.187-.405.14-.5-.016 0 .047-.046.125-.046.187-.078 0-.156.016-.234-.016.03-.187.047-.42.094-.625.078-.28.594-.828-.078-.797-.234.015-.328.108-.406.312-.078.187-.047.36-.266.453-.14.063-.61.03-.75-.047-.297-.172-.5-.72-.5-1.03-.016-.423.203-.798 0-1.19.094-.077.187-.233.297-.312.094-.063.203.047.25-.14-.047-.032-.11-.095-.125-.095.234.11.672-.156.875 0 .125.094.266.125.344-.03.017-.048-.11-.235-.046-.36.047.266.22.313.453.14.094.095.344.064.516.157.17.11.202.28.405.047.125.187.14.187.187.375.047.17.14.61.297.687.327.203.25-.344.218-.53-.016-.017-.016-.532-.03-.532-.5-.11-.314-.5-.032-.766.047-.03.406-.157.562-.28.14-.127.313-.346.234-.55.078 0 .14-.062.172-.14-.047-.016-.234-.172-.266-.156.11-.063.094-.156.03-.25.157-.094.08-.266.235-.328.172.234.516-.03.344-.22.155-.218.515-.108.61-.312.232.063.06-.234.185-.406.11-.142.297-.142.438-.22 0 .016.392-.22.267-.234.266.03.797-.25.39-.484.064-.14-.14-.203-.28-.234.11-.03.25.03.344-.03.204-.142.064-.204-.108-.25-.22-.064-.5.077-.672.186zm-2.546 13.704c2.14-.375 4.047-1.437 5.484-2.953-.094-.092-.266-.06-.39-.123-.126-.047-.22-.094-.376-.125.03-.312-.313-.42-.53-.577-.204-.156-.33-.328-.626-.266-.03.015-.344.124-.28.186-.204-.172-.298-.266-.563-.344-.25-.078-.422-.39-.672-.11-.123.126-.06.314-.123.44-.203-.173.187-.376.03-.563-.186-.22-.515.14-.67.233-.095.08-.204.11-.267.204-.08.11-.11.25-.173.36-.047-.126-.313-.095-.328-.188.06.374.06.765.14 1.14.046.22 0 .58-.188.75s-.422.36-.453.625c-.03.187.015.36.186.406.016.235-.25.407-.234.657 0 .016.016.172.03.25z"/></symbol><symbol id="logo-wave" viewBox="0 0 260 58"><path d="M258.866 26c-11.98 3.258-24.352 5.328-36.784 6.36-6.22.503-12.465.72-18.696.57-5.57-.14-11.114-.594-16.61-1.478-.482.767-1.073 1.445-1.776 2.027 6.008 1.237 12.15 1.935 18.272 2.274 6.342.344 12.697.312 19.033-.01 12.674-.672 25.294-2.39 37.695-5.366L258.866 26zM231.6 41.732c-8.76 1.2-17.603 1.812-26.412 1.56-4.406-.14-8.803-.496-13.132-1.24-3.583-.65-7.176-1.507-10.455-3.052-.42.746-.98 1.448-1.6 2.09 3.714 2.024 7.688 3.086 11.618 3.935 4.457.92 8.95 1.425 13.445 1.71 8.992.55 17.99.214 26.938-.718l-.4-4.285zM183.273 48c-1.77-.39-3.528-.856-5.25-1.413-1.383-.452-2.728-.978-4.013-1.587-.588.66-1.264 1.23-2.01 1.712 1.68 1.013 3.43 1.76 5.185 2.446 1.78.682 3.585 1.27 5.413 1.777 3.655 1.012 7.392 1.723 11.19 2.065l.212-3.615c-3.59-.128-7.186-.608-10.727-1.384zm3.57-24.628c-.37 2.446-1.637 4.798-3.502 6.422-1.38 1.214-2.984 2.054-4.644 2.596-.26 2.95-1.696 5.788-3.863 7.728-2.552 2.353-5.815 3.565-9.06 4.124-.186.504-.41 1.01-.67 1.476-1.1 1.998-2.91 3.547-4.887 4.482-1.827.896-3.84 1.342-5.76 1.51-2.613 5.49-10.016 8.234-15.31 4.724-1.532-1.045-2.705-2.575-3.263-4.37-.56-1.755-.412-3.956.93-5.506 1.306-1.456 3.15-2.202 5.073-2.11.952.055 1.92.412 2.687 1.01.783.596 1.323 1.418 1.675 2.24l-1.36.616c-.597-1.326-1.733-2.202-3.094-2.22-1.34-.058-2.796.615-3.62 1.623-.817.97-.93 2.446-.465 3.752.445 1.325 1.377 2.502 2.574 3.25 2.384 1.55 5.685 1.38 8.166-.077 2.536-1.42 4.382-4.087 4.306-6.813-.018-1.363-.465-2.706-1.232-3.903-.41-.616-.82-1.156-1.342-1.698-.466-.488-1.006-.88-1.622-1.234-2.46-1.382-5.576-1.736-8.503-1.382-5.967.708-11.282 4.31-14.675 9.296l-3.597-2.724c4.215-5.564 10.853-9.633 17.96-10.063 3.524-.207 7.196.335 10.368 2.313.782.506 1.528 1.104 2.182 1.83.58.654 1.156 1.438 1.605 2.203.93 1.567 1.548 3.452 1.49 5.357-.018.634-.094 1.27-.242 1.867 1.473-.26 2.854-.69 4.14-1.362 1.642-.84 3.003-2.13 3.804-3.716.822-1.57 1.1-3.418.857-5.19-.223-1.81-1.027-3.36-2.2-4.8-2.35-2.818-5.877-4.593-9.55-5.3-3.69-.71-7.57-.412-11.3.504-3.75.897-7.365 2.41-10.833 4.22-3.432 1.81-6.79 4.05-10.293 6.162-6.92 4.293-14.416 8.14-22.23 10.846l-1.693-5.004c7.55-2.37 14.655-5.75 21.613-9.78 3.485-1.962 6.934-4.146 10.74-5.94 3.763-1.81 7.74-3.265 11.915-4.106 4.14-.824 8.523-1.026 12.756-.02 4.212.972 8.277 3.194 11 6.74.673.88 1.266 1.83 1.716 2.894.466 1.045.71 2.204.84 3.305.093 1.01.075 2.036-.093 3.044 2.645-.67 5.144-1.827 7.007-3.656 2.165-2.055 3.265-5.04 2.928-7.955-.315-2.93-1.9-5.62-4.14-7.655-2.235-2.07-5.033-3.565-7.96-4.59-5.91-2.056-12.42-2.316-18.648-1.365-3.132.485-6.21 1.27-9.195 2.334-2.946 1.025-5.93 2.427-8.84 3.807-5.837 2.82-11.56 6.014-17.51 8.908-5.93 2.912-12.12 5.524-18.532 7.485-12.72 3.94-26.108 5.32-39.254 5.285l.616-6.01c12.606.353 25.19-.636 37.256-3.997 6.174-1.697 12.178-4.014 18.07-6.7 5.894-2.69 11.71-5.714 17.75-8.42 3.04-1.344 6.043-2.653 9.29-3.735 3.206-1.045 6.525-1.83 9.88-2.277 6.697-.86 13.67-.448 20.107 1.94 3.204 1.214 6.282 2.913 8.818 5.36 2.554 2.407 4.437 5.732 4.716 9.37 1.214-.504 2.313-1.194 3.247-2.072 1.474-1.363 2.367-3.157 2.665-5.21.282-2.07-.186-3.995-1.025-5.86-.857-1.868-1.808-3.248-3.338-4.91-1.36-1.475-2.705-2.466-3.86-3.212-1.717-1.12-3.524-2.147-6.023-3.062-4.045-1.51-8.56-2.483-14.154-2.483-8.746 0-16.465 2.09-25.287 5.713-8.11 3.324-15.85 8.16-24.07 11.93-8.204 3.83-16.8 7.002-25.66 9.167-8.876 2.166-17.88 3.436-26.946 4.11-18.087 1.287-36.47.186-54.245-4.052l1.416-5.844c17.045 4.406 34.854 5.826 52.51 4.91 8.823-.486 17.642-1.55 26.24-3.49 8.595-1.925 16.952-4.835 25.06-8.42 8.15-3.547 17.084-8.85 25.625-12.192C140.176 1.678 147.186 0 156.42 0c5.278 0 10.573 1.232 14.916 2.93 2.668 1.027 4.532 2.09 6.733 3.64 1.326.934 2.778 2.202 4.066 3.547 1.64 1.736 2.945 3.772 3.822 6.012.91 2.275 1.282 4.757.89 7.24z" id="Shape"/></symbol></defs></svg>
